# MagicaVoxel @ Ephtracy

# group
o 

# material
mtllib turrets_top.mtl
usemtl palette

# normals
vn -1 0 0
vn 1 0 0
vn 0 0 1
vn 0 0 -1
vn 0 -1 0
vn 0 1 0

# texcoords
vt 0.0175781 0.5
vt 0.869141 0.5
vt 0.982422 0.5
vt 0.990234 0.5
vt 0.994141 0.5

# verts
v 1.3 3.4 -1.7
v 1.3 3.4 -2
v 1.3 3.9 -1.7
v 1.3 3.9 -2
v 1.4 3.4 -1.5
v 1.4 3.4 -1.7
v 1.4 3.4 -2
v 1.4 3.4 -2.2
v 1.4 3.5 -1.5
v 1.4 3.5 -1.7
v 1.4 3.5 -2
v 1.4 3.5 -2.2
v 1.4 3.8 -1.5
v 1.4 3.8 -1.7
v 1.4 3.8 -2
v 1.4 3.8 -2.2
v 1.4 3.9 -1.5
v 1.4 3.9 -1.7
v 1.4 3.9 -2
v 1.4 3.9 -2.2
v 1.5 3.3 -1.5
v 1.5 3.3 -2.2
v 1.5 3.4 -1.4
v 1.5 3.4 -1.5
v 1.5 3.4 -2.2
v 1.5 3.4 -2.3
v 1.5 3.5 -1.4
v 1.5 3.5 -1.5
v 1.5 3.5 -1.7
v 1.5 3.5 -2
v 1.5 3.5 -2.2
v 1.5 3.5 -2.3
v 1.5 3.8 -1.4
v 1.5 3.8 -1.5
v 1.5 3.8 -1.7
v 1.5 3.8 -2
v 1.5 3.8 -2.2
v 1.5 3.8 -2.3
v 1.5 3.9 -1.4
v 1.5 3.9 -1.5
v 1.5 3.9 -1.8
v 1.5 3.9 -1.9
v 1.5 3.9 -2.2
v 1.5 3.9 -2.3
v 1.5 4 -1.5
v 1.5 4 -1.6
v 1.5 4 -1.7
v 1.5 4 -2
v 1.5 4 -2.2
v 1.5 4.1 -1.7
v 1.5 4.1 -1.8
v 1.5 4.1 -1.9
v 1.5 4.1 -2
v 1.5 4.2 -1.8
v 1.5 4.2 -1.9
v 1.5 4.6 -1.4
v 1.5 4.6 -1.5
v 1.5 4.7 -1.4
v 1.5 4.7 -1.5
v 1.5 4.7 -1.6
v 1.5 4.8 -1.5
v 1.5 4.8 -1.6
v 1.9 4 -1.6
v 1.9 4 -1.7
v 1.9 4 -2
v 1.9 4 -2.1
v 1.9 4.1 -1.6
v 1.9 4.1 -1.7
v 1.9 4.1 -2
v 1.9 4.1 -2.1
v 1.6 4 -1.5
v 1.6 4 -1.6
v 1.6 4.6 -1.4
v 1.6 4.6 -1.5
v 1.6 4.7 -1.4
v 1.6 4.7 -1.5
v 1.6 4.7 -1.6
v 1.6 4.8 -1.5
v 1.6 4.8 -1.6
v 2.2 4 -1.6
v 2.2 4 -1.7
v 2.2 4 -2
v 2.2 4 -2.1
v 2.2 4.1 -1.6
v 2.2 4.1 -1.7
v 2.2 4.1 -2
v 2.2 4.1 -2.1
v 2.3 3.3 -1.5
v 2.3 3.3 -1.6
v 2.3 3.3 -2.1
v 2.3 3.3 -2.2
v 2.3 3.4 -1.4
v 2.3 3.4 -1.5
v 2.3 3.4 -1.6
v 2.3 3.4 -2.1
v 2.3 3.4 -2.2
v 2.3 3.4 -2.3
v 2.3 3.5 -1.4
v 2.3 3.5 -1.5
v 2.3 3.5 -1.6
v 2.3 3.5 -2.1
v 2.3 3.5 -2.2
v 2.3 3.5 -2.3
v 2.3 3.8 -1.4
v 2.3 3.8 -1.5
v 2.3 3.8 -1.6
v 2.3 3.8 -2.1
v 2.3 3.8 -2.2
v 2.3 3.8 -2.3
v 2.3 3.9 -1.4
v 2.3 3.9 -1.5
v 2.3 3.9 -1.6
v 2.3 3.9 -2.1
v 2.3 3.9 -2.2
v 2.3 3.9 -2.3
v 2.3 4 -1.5
v 2.3 4 -1.6
v 2.3 4 -2.1
v 2.3 4 -2.2
v 2.7 3.4 -1.7
v 2.7 3.4 -1.8
v 2.7 3.4 -1.9
v 2.7 3.4 -2
v 2.7 3.5 -1.7
v 2.7 3.5 -1.8
v 2.7 3.5 -1.9
v 2.7 3.5 -2
v 2.7 3.6 -1.7
v 2.7 3.6 -1.8
v 2.7 3.6 -1.9
v 2.7 3.6 -2
v 2.7 3.7 -1.7
v 2.7 3.7 -1.8
v 2.7 3.7 -1.9
v 2.7 3.7 -2
v 2.7 3.8 -1.7
v 2.7 3.8 -1.8
v 2.7 3.8 -1.9
v 2.7 3.8 -2
v 2.7 3.9 -1.7
v 2.7 3.9 -1.8
v 2.7 3.9 -1.9
v 2.7 3.9 -2
v 2.7 4 -1.7
v 2.7 4 -1.8
v 2.7 4 -1.9
v 2.7 4 -2
v 2.7 4.1 -1.7
v 2.7 4.1 -1.8
v 2.7 4.1 -1.9
v 2.7 4.1 -2
v 2.7 4.2 -1.8
v 2.7 4.2 -1.9
v 2.9 3.3 -1.6
v 2.9 3.3 -2.1
v 2.9 3.4 -1.5
v 2.9 3.4 -1.6
v 2.9 3.4 -1.7
v 2.9 3.4 -1.8
v 2.9 3.4 -1.9
v 2.9 3.4 -2
v 2.9 3.4 -2.1
v 2.9 3.4 -2.2
v 2.9 3.5 -1.5
v 2.9 3.5 -1.6
v 2.9 3.5 -1.7
v 2.9 3.5 -1.8
v 2.9 3.5 -1.9
v 2.9 3.5 -2
v 2.9 3.5 -2.1
v 2.9 3.5 -2.2
v 2.9 3.6 -1.7
v 2.9 3.6 -1.8
v 2.9 3.6 -1.9
v 2.9 3.6 -2
v 2.9 3.7 -1.7
v 2.9 3.7 -1.8
v 2.9 3.7 -1.9
v 2.9 3.7 -2
v 2.9 3.8 -1.5
v 2.9 3.8 -1.6
v 2.9 3.8 -1.7
v 2.9 3.8 -1.8
v 2.9 3.8 -1.9
v 2.9 3.8 -2
v 2.9 3.8 -2.1
v 2.9 3.8 -2.2
v 2.9 3.9 -1.5
v 2.9 3.9 -1.6
v 2.9 3.9 -1.7
v 2.9 3.9 -1.8
v 2.9 3.9 -1.9
v 2.9 3.9 -2
v 2.9 3.9 -2.1
v 2.9 3.9 -2.2
v 2.9 4 -1.6
v 2.9 4 -2.1
v 1.5 3.4 -1.4
v 1.5 3.5 -1.4
v 1.5 3.8 -1.4
v 1.5 3.9 -1.4
v 1.5 4.6 -1.4
v 1.5 4.7 -1.4
v 1.6 4.6 -1.4
v 1.6 4.7 -1.4
v 2.3 3.4 -1.4
v 2.3 3.5 -1.4
v 2.3 3.8 -1.4
v 2.3 3.9 -1.4
v 1.4 3.4 -1.5
v 1.4 3.5 -1.5
v 1.4 3.8 -1.5
v 1.4 3.9 -1.5
v 1.5 3.3 -1.5
v 1.5 3.4 -1.5
v 1.5 3.5 -1.5
v 1.5 3.8 -1.5
v 1.5 3.9 -1.5
v 1.5 4 -1.5
v 1.5 4.6 -1.5
v 1.5 4.7 -1.5
v 1.5 4.8 -1.5
v 1.6 4 -1.5
v 1.6 4.6 -1.5
v 1.6 4.7 -1.5
v 1.6 4.8 -1.5
v 2.3 3.3 -1.5
v 2.3 3.4 -1.5
v 2.3 3.5 -1.5
v 2.3 3.8 -1.5
v 2.3 3.9 -1.5
v 2.3 4 -1.5
v 2.9 3.4 -1.5
v 2.9 3.5 -1.5
v 2.9 3.8 -1.5
v 2.9 3.9 -1.5
v 1.9 4 -1.6
v 1.9 4.1 -1.6
v 2.2 4 -1.6
v 2.2 4.1 -1.6
v 2.3 3.3 -1.6
v 2.3 3.4 -1.6
v 2.3 3.5 -1.6
v 2.3 3.8 -1.6
v 2.3 3.9 -1.6
v 2.3 4 -1.6
v 2.8 3.3 -1.6
v 2.8 3.4 -1.6
v 2.8 3.5 -1.6
v 2.8 3.8 -1.6
v 2.8 3.9 -1.6
v 2.8 4 -1.6
v 2.9 3.3 -1.6
v 2.9 3.4 -1.6
v 2.9 3.5 -1.6
v 2.9 3.8 -1.6
v 2.9 3.9 -1.6
v 2.9 4 -1.6
v 1.3 3.4 -1.7
v 1.3 3.9 -1.7
v 1.4 3.4 -1.7
v 1.4 3.5 -1.7
v 1.4 3.8 -1.7
v 1.4 3.9 -1.7
v 1.5 3.5 -1.7
v 1.5 3.8 -1.7
v 1.5 4 -1.7
v 1.5 4.1 -1.7
v 1.9 4 -1.7
v 1.9 4.1 -1.7
v 2.2 4 -1.7
v 2.2 4.1 -1.7
v 2.7 4 -1.7
v 2.7 4.1 -1.7
v 1.5 4.1 -1.8
v 1.5 4.2 -1.8
v 2.7 3.4 -1.8
v 2.7 3.5 -1.8
v 2.7 3.6 -1.8
v 2.7 3.7 -1.8
v 2.7 3.8 -1.8
v 2.7 3.9 -1.8
v 2.7 4.1 -1.8
v 2.7 4.2 -1.8
v 2.8 3.4 -1.8
v 2.8 3.5 -1.8
v 2.8 3.6 -1.8
v 2.8 3.7 -1.8
v 2.8 3.8 -1.8
v 2.8 3.9 -1.8
v 2.9 3.4 -1.8
v 2.9 3.5 -1.8
v 2.9 3.6 -1.8
v 2.9 3.7 -1.8
v 2.9 3.8 -1.8
v 2.9 3.9 -1.8
v 2.7 3.4 -2
v 2.7 3.5 -2
v 2.7 3.6 -2
v 2.7 3.7 -2
v 2.7 3.8 -2
v 2.7 3.9 -2
v 2.8 3.4 -2
v 2.8 3.5 -2
v 2.8 3.6 -2
v 2.8 3.7 -2
v 2.8 3.8 -2
v 2.8 3.9 -2
v 2.9 3.4 -2
v 2.9 3.5 -2
v 2.9 3.6 -2
v 2.9 3.7 -2
v 2.9 3.8 -2
v 2.9 3.9 -2
v 1.5 4 -1.6
v 1.5 4.7 -1.6
v 1.5 4.8 -1.6
v 1.6 4 -1.6
v 1.6 4.7 -1.6
v 1.6 4.8 -1.6
v 2.7 3.4 -1.7
v 2.7 3.5 -1.7
v 2.7 3.6 -1.7
v 2.7 3.7 -1.7
v 2.7 3.8 -1.7
v 2.7 3.9 -1.7
v 2.8 3.4 -1.7
v 2.8 3.5 -1.7
v 2.8 3.6 -1.7
v 2.8 3.7 -1.7
v 2.8 3.8 -1.7
v 2.8 3.9 -1.7
v 2.9 3.4 -1.7
v 2.9 3.5 -1.7
v 2.9 3.6 -1.7
v 2.9 3.7 -1.7
v 2.9 3.8 -1.7
v 2.9 3.9 -1.7
v 1.5 4.1 -1.9
v 1.5 4.2 -1.9
v 2.7 3.4 -1.9
v 2.7 3.5 -1.9
v 2.7 3.6 -1.9
v 2.7 3.7 -1.9
v 2.7 3.8 -1.9
v 2.7 3.9 -1.9
v 2.7 4.1 -1.9
v 2.7 4.2 -1.9
v 2.8 3.4 -1.9
v 2.8 3.5 -1.9
v 2.8 3.6 -1.9
v 2.8 3.7 -1.9
v 2.8 3.8 -1.9
v 2.8 3.9 -1.9
v 2.9 3.4 -1.9
v 2.9 3.5 -1.9
v 2.9 3.6 -1.9
v 2.9 3.7 -1.9
v 2.9 3.8 -1.9
v 2.9 3.9 -1.9
v 1.3 3.4 -2
v 1.3 3.9 -2
v 1.4 3.4 -2
v 1.4 3.5 -2
v 1.4 3.8 -2
v 1.4 3.9 -2
v 1.5 3.5 -2
v 1.5 3.8 -2
v 1.5 4 -2
v 1.5 4.1 -2
v 1.9 4 -2
v 1.9 4.1 -2
v 2.2 4 -2
v 2.2 4.1 -2
v 2.7 4 -2
v 2.7 4.1 -2
v 1.9 4 -2.1
v 1.9 4.1 -2.1
v 2.2 4 -2.1
v 2.2 4.1 -2.1
v 2.3 3.3 -2.1
v 2.3 3.4 -2.1
v 2.3 3.5 -2.1
v 2.3 3.8 -2.1
v 2.3 3.9 -2.1
v 2.3 4 -2.1
v 2.8 3.3 -2.1
v 2.8 3.4 -2.1
v 2.8 3.5 -2.1
v 2.8 3.8 -2.1
v 2.8 3.9 -2.1
v 2.8 4 -2.1
v 2.9 3.3 -2.1
v 2.9 3.4 -2.1
v 2.9 3.5 -2.1
v 2.9 3.8 -2.1
v 2.9 3.9 -2.1
v 2.9 4 -2.1
v 1.4 3.4 -2.2
v 1.4 3.5 -2.2
v 1.4 3.8 -2.2
v 1.4 3.9 -2.2
v 1.5 3.3 -2.2
v 1.5 3.4 -2.2
v 1.5 3.5 -2.2
v 1.5 3.8 -2.2
v 1.5 3.9 -2.2
v 1.5 4 -2.2
v 2.3 3.3 -2.2
v 2.3 3.4 -2.2
v 2.3 3.5 -2.2
v 2.3 3.8 -2.2
v 2.3 3.9 -2.2
v 2.3 4 -2.2
v 2.9 3.4 -2.2
v 2.9 3.5 -2.2
v 2.9 3.8 -2.2
v 2.9 3.9 -2.2
v 1.5 3.4 -2.3
v 1.5 3.5 -2.3
v 1.5 3.8 -2.3
v 1.5 3.9 -2.3
v 2.3 3.4 -2.3
v 2.3 3.5 -2.3
v 2.3 3.8 -2.3
v 2.3 3.9 -2.3
v 1.5 3.3 -1.5
v 2.3 3.3 -1.5
v 2.3 3.3 -1.6
v 2.8 3.3 -1.6
v 2.9 3.3 -1.6
v 2.3 3.3 -2.1
v 2.8 3.3 -2.1
v 2.9 3.3 -2.1
v 1.5 3.3 -2.2
v 2.3 3.3 -2.2
v 1.5 3.4 -1.4
v 2.3 3.4 -1.4
v 1.4 3.4 -1.5
v 1.5 3.4 -1.5
v 2.3 3.4 -1.5
v 2.9 3.4 -1.5
v 2.3 3.4 -1.6
v 2.8 3.4 -1.6
v 2.9 3.4 -1.6
v 1.3 3.4 -1.7
v 1.4 3.4 -1.7
v 1.3 3.4 -2
v 1.4 3.4 -2
v 2.3 3.4 -2.1
v 2.8 3.4 -2.1
v 2.9 3.4 -2.1
v 1.4 3.4 -2.2
v 1.5 3.4 -2.2
v 2.3 3.4 -2.2
v 2.9 3.4 -2.2
v 1.5 3.4 -2.3
v 2.3 3.4 -2.3
v 2.7 3.5 -1.7
v 2.8 3.5 -1.7
v 2.9 3.5 -1.7
v 2.7 3.5 -1.8
v 2.8 3.5 -1.8
v 2.9 3.5 -1.8
v 2.7 3.5 -1.9
v 2.8 3.5 -1.9
v 2.9 3.5 -1.9
v 2.7 3.5 -2
v 2.8 3.5 -2
v 2.9 3.5 -2
v 2.7 3.7 -1.7
v 2.8 3.7 -1.7
v 2.9 3.7 -1.7
v 2.7 3.7 -1.8
v 2.8 3.7 -1.8
v 2.9 3.7 -1.8
v 2.7 3.7 -1.9
v 2.8 3.7 -1.9
v 2.9 3.7 -1.9
v 2.7 3.7 -2
v 2.8 3.7 -2
v 2.9 3.7 -2
v 1.5 3.8 -1.4
v 2.3 3.8 -1.4
v 1.4 3.8 -1.5
v 1.5 3.8 -1.5
v 2.3 3.8 -1.5
v 2.9 3.8 -1.5
v 2.3 3.8 -1.6
v 2.8 3.8 -1.6
v 2.9 3.8 -1.6
v 1.4 3.8 -1.7
v 1.5 3.8 -1.7
v 1.4 3.8 -2
v 1.5 3.8 -2
v 2.3 3.8 -2.1
v 2.8 3.8 -2.1
v 2.9 3.8 -2.1
v 1.4 3.8 -2.2
v 1.5 3.8 -2.2
v 2.3 3.8 -2.2
v 2.9 3.8 -2.2
v 1.5 3.8 -2.3
v 2.3 3.8 -2.3
v 2.7 3.9 -1.7
v 2.8 3.9 -1.7
v 2.9 3.9 -1.7
v 2.7 3.9 -1.8
v 2.8 3.9 -1.8
v 2.9 3.9 -1.8
v 2.7 3.9 -1.9
v 2.8 3.9 -1.9
v 2.9 3.9 -1.9
v 2.7 3.9 -2
v 2.8 3.9 -2
v 2.9 3.9 -2
v 1.5 4.6 -1.4
v 1.6 4.6 -1.4
v 1.5 4.6 -1.5
v 1.6 4.6 -1.5
v 2.7 3.4 -1.7
v 2.8 3.4 -1.7
v 2.9 3.4 -1.7
v 2.7 3.4 -1.8
v 2.8 3.4 -1.8
v 2.9 3.4 -1.8
v 2.7 3.4 -1.9
v 2.8 3.4 -1.9
v 2.9 3.4 -1.9
v 2.7 3.4 -2
v 2.8 3.4 -2
v 2.9 3.4 -2
v 1.5 3.5 -1.4
v 2.3 3.5 -1.4
v 1.4 3.5 -1.5
v 1.5 3.5 -1.5
v 2.3 3.5 -1.5
v 2.9 3.5 -1.5
v 2.3 3.5 -1.6
v 2.8 3.5 -1.6
v 2.9 3.5 -1.6
v 1.4 3.5 -1.7
v 1.5 3.5 -1.7
v 1.4 3.5 -2
v 1.5 3.5 -2
v 2.3 3.5 -2.1
v 2.8 3.5 -2.1
v 2.9 3.5 -2.1
v 1.4 3.5 -2.2
v 1.5 3.5 -2.2
v 2.3 3.5 -2.2
v 2.9 3.5 -2.2
v 1.5 3.5 -2.3
v 2.3 3.5 -2.3
v 2.7 3.6 -1.7
v 2.8 3.6 -1.7
v 2.9 3.6 -1.7
v 2.7 3.6 -1.8
v 2.8 3.6 -1.8
v 2.9 3.6 -1.8
v 2.7 3.6 -1.9
v 2.8 3.6 -1.9
v 2.9 3.6 -1.9
v 2.7 3.6 -2
v 2.8 3.6 -2
v 2.9 3.6 -2
v 2.7 3.8 -1.7
v 2.8 3.8 -1.7
v 2.9 3.8 -1.7
v 2.7 3.8 -1.8
v 2.8 3.8 -1.8
v 2.9 3.8 -1.8
v 2.7 3.8 -1.9
v 2.8 3.8 -1.9
v 2.9 3.8 -1.9
v 2.7 3.8 -2
v 2.8 3.8 -2
v 2.9 3.8 -2
v 1.5 3.9 -1.4
v 2.3 3.9 -1.4
v 1.4 3.9 -1.5
v 1.5 3.9 -1.5
v 2.3 3.9 -1.5
v 2.9 3.9 -1.5
v 2.3 3.9 -1.6
v 2.8 3.9 -1.6
v 2.9 3.9 -1.6
v 1.3 3.9 -1.7
v 1.4 3.9 -1.7
v 1.5 3.9 -1.8
v 1.5 3.9 -1.9
v 1.3 3.9 -2
v 1.4 3.9 -2
v 2.3 3.9 -2.1
v 2.8 3.9 -2.1
v 2.9 3.9 -2.1
v 1.4 3.9 -2.2
v 1.5 3.9 -2.2
v 2.3 3.9 -2.2
v 2.9 3.9 -2.2
v 1.5 3.9 -2.3
v 2.3 3.9 -2.3
v 1.6 4 -1.5
v 2.3 4 -1.5
v 1.5 4 -1.6
v 1.6 4 -1.6
v 1.9 4 -1.6
v 2.2 4 -1.6
v 2.3 4 -1.6
v 2.8 4 -1.6
v 2.9 4 -1.6
v 1.5 4 -1.7
v 1.9 4 -1.7
v 2.2 4 -1.7
v 2.7 4 -1.7
v 2.7 4 -1.8
v 2.8 4 -1.8
v 2.7 4 -1.9
v 2.8 4 -1.9
v 1.5 4 -2
v 1.9 4 -2
v 2.2 4 -2
v 2.7 4 -2
v 1.9 4 -2.1
v 2.2 4 -2.1
v 2.3 4 -2.1
v 2.8 4 -2.1
v 2.9 4 -2.1
v 1.5 4 -2.2
v 2.3 4 -2.2
v 1.9 4.1 -1.6
v 2.2 4.1 -1.6
v 1.5 4.1 -1.7
v 1.9 4.1 -1.7
v 2.2 4.1 -1.7
v 2.7 4.1 -1.7
v 1.5 4.1 -1.8
v 2.7 4.1 -1.8
v 1.5 4.1 -1.9
v 2.7 4.1 -1.9
v 1.5 4.1 -2
v 1.9 4.1 -2
v 2.2 4.1 -2
v 2.7 4.1 -2
v 1.9 4.1 -2.1
v 2.2 4.1 -2.1
v 1.5 4.2 -1.8
v 2.7 4.2 -1.8
v 1.5 4.2 -1.9
v 2.7 4.2 -1.9
v 1.5 4.7 -1.4
v 1.6 4.7 -1.4
v 1.5 4.7 -1.5
v 1.6 4.7 -1.5
v 1.5 4.8 -1.5
v 1.6 4.8 -1.5
v 1.5 4.8 -1.6
v 1.6 4.8 -1.6

# faces
f 3/3/1 2/3/1 1/3/1
f 4/3/1 2/3/1 3/3/1
f 9/3/1 6/3/1 5/3/1
f 10/3/1 6/3/1 9/3/1
f 11/3/1 8/3/1 7/3/1
f 12/3/1 8/3/1 11/3/1
f 17/3/1 14/3/1 13/3/1
f 18/3/1 14/3/1 17/3/1
f 19/3/1 16/3/1 15/3/1
f 20/3/1 16/3/1 19/3/1
f 24/4/1 22/4/1 21/4/1
f 25/4/1 22/4/1 24/4/1
f 27/3/1 24/3/1 23/3/1
f 28/3/1 24/3/1 27/3/1
f 31/3/1 26/3/1 25/3/1
f 32/3/1 26/3/1 31/3/1
f 34/4/1 29/4/1 28/4/1
f 35/4/1 29/4/1 34/4/1
f 36/4/1 31/4/1 30/4/1
f 37/4/1 31/4/1 36/4/1
f 39/3/1 34/3/1 33/3/1
f 40/3/1 34/3/1 39/3/1
f 43/3/1 38/3/1 37/3/1
f 44/3/1 38/3/1 43/3/1
f 45/4/1 41/4/1 40/4/1
f 46/4/1 41/4/1 45/4/1
f 47/4/1 41/4/1 46/4/1
f 48/4/1 43/4/1 42/4/1
f 49/4/1 43/4/1 48/4/1
f 50/4/1 41/4/1 47/4/1
f 51/3/1 42/3/1 41/3/1
f 51/4/1 41/4/1 50/4/1
f 52/4/1 48/4/1 42/4/1
f 52/3/1 42/3/1 51/3/1
f 53/4/1 48/4/1 52/4/1
f 54/3/1 52/3/1 51/3/1
f 55/3/1 52/3/1 54/3/1
f 57/5/1 46/5/1 45/5/1
f 58/5/1 57/5/1 56/5/1
f 59/5/1 46/5/1 57/5/1
f 59/5/1 57/5/1 58/5/1
f 60/5/1 46/5/1 59/5/1
f 61/1/1 60/1/1 59/1/1
f 62/1/1 60/1/1 61/1/1
f 67/4/1 64/4/1 63/4/1
f 68/4/1 64/4/1 67/4/1
f 69/4/1 66/4/1 65/4/1
f 70/4/1 66/4/1 69/4/1
f 71/5/2 72/5/2 74/5/2
f 73/5/2 74/5/2 75/5/2
f 74/5/2 72/5/2 76/5/2
f 75/5/2 74/5/2 76/5/2
f 76/5/2 72/5/2 77/5/2
f 76/1/2 77/1/2 78/1/2
f 78/1/2 77/1/2 79/1/2
f 80/4/2 81/4/2 84/4/2
f 84/4/2 81/4/2 85/4/2
f 82/4/2 83/4/2 86/4/2
f 86/4/2 83/4/2 87/4/2
f 88/4/2 89/4/2 93/4/2
f 93/4/2 89/4/2 94/4/2
f 90/4/2 91/4/2 95/4/2
f 95/4/2 91/4/2 96/4/2
f 92/3/2 93/3/2 98/3/2
f 98/3/2 93/3/2 99/3/2
f 96/3/2 97/3/2 102/3/2
f 102/3/2 97/3/2 103/3/2
f 99/4/2 100/4/2 105/4/2
f 105/4/2 100/4/2 106/4/2
f 101/4/2 102/4/2 107/4/2
f 107/4/2 102/4/2 108/4/2
f 104/3/2 105/3/2 110/3/2
f 110/3/2 105/3/2 111/3/2
f 108/3/2 109/3/2 114/3/2
f 114/3/2 109/3/2 115/3/2
f 111/4/2 112/4/2 116/4/2
f 116/4/2 112/4/2 117/4/2
f 113/4/2 114/4/2 118/4/2
f 118/4/2 114/4/2 119/4/2
f 120/2/2 121/2/2 124/2/2
f 124/2/2 121/2/2 125/2/2
f 122/2/2 123/2/2 126/2/2
f 126/2/2 123/2/2 127/2/2
f 128/2/2 129/2/2 132/2/2
f 132/2/2 129/2/2 133/2/2
f 130/2/2 131/2/2 134/2/2
f 134/2/2 131/2/2 135/2/2
f 136/2/2 137/2/2 140/2/2
f 140/2/2 137/2/2 141/2/2
f 138/2/2 139/2/2 142/2/2
f 142/2/2 139/2/2 143/2/2
f 144/4/2 145/4/2 148/4/2
f 145/3/2 146/3/2 149/3/2
f 148/4/2 145/4/2 149/4/2
f 146/4/2 147/4/2 150/4/2
f 149/3/2 146/3/2 150/3/2
f 150/4/2 147/4/2 151/4/2
f 149/3/2 150/3/2 152/3/2
f 152/3/2 150/3/2 153/3/2
f 154/3/2 155/3/2 157/3/2
f 157/3/2 155/3/2 158/3/2
f 158/3/2 155/3/2 159/3/2
f 159/3/2 155/3/2 160/3/2
f 160/3/2 155/3/2 161/3/2
f 161/3/2 155/3/2 162/3/2
f 156/3/2 157/3/2 164/3/2
f 157/3/2 158/3/2 164/3/2
f 164/3/2 158/3/2 165/3/2
f 165/3/2 158/3/2 166/3/2
f 159/3/2 160/3/2 167/3/2
f 167/3/2 160/3/2 168/3/2
f 162/3/2 163/3/2 169/3/2
f 161/3/2 162/3/2 169/3/2
f 169/3/2 163/3/2 170/3/2
f 170/3/2 163/3/2 171/3/2
f 167/3/2 168/3/2 172/3/2
f 166/3/2 167/3/2 172/3/2
f 169/3/2 170/3/2 172/3/2
f 168/3/2 169/3/2 172/3/2
f 165/3/2 166/3/2 172/3/2
f 172/3/2 170/3/2 173/3/2
f 173/3/2 170/3/2 174/3/2
f 174/3/2 170/3/2 175/3/2
f 165/3/2 172/3/2 176/3/2
f 173/3/2 174/3/2 177/3/2
f 177/3/2 174/3/2 178/3/2
f 175/3/2 170/3/2 179/3/2
f 177/3/2 178/3/2 181/3/2
f 178/3/2 179/3/2 181/3/2
f 165/3/2 176/3/2 181/3/2
f 176/3/2 177/3/2 181/3/2
f 181/3/2 179/3/2 182/3/2
f 182/3/2 179/3/2 183/3/2
f 183/3/2 179/3/2 184/3/2
f 179/3/2 170/3/2 185/3/2
f 184/3/2 179/3/2 185/3/2
f 185/3/2 170/3/2 186/3/2
f 180/3/2 181/3/2 188/3/2
f 181/3/2 182/3/2 188/3/2
f 188/3/2 182/3/2 189/3/2
f 189/3/2 182/3/2 190/3/2
f 183/3/2 184/3/2 191/3/2
f 191/3/2 184/3/2 192/3/2
f 186/3/2 187/3/2 193/3/2
f 185/3/2 186/3/2 193/3/2
f 193/3/2 187/3/2 194/3/2
f 194/3/2 187/3/2 195/3/2
f 189/3/2 190/3/2 196/3/2
f 191/3/2 192/3/2 196/3/2
f 193/3/2 194/3/2 196/3/2
f 192/3/2 193/3/2 196/3/2
f 190/3/2 191/3/2 196/3/2
f 196/3/2 194/3/2 197/3/2
f 204/5/3 203/5/3 202/5/3
f 205/5/3 203/5/3 204/5/3
f 206/3/3 199/3/3 198/3/3
f 207/3/3 199/3/3 206/3/3
f 208/3/3 201/3/3 200/3/3
f 209/3/3 201/3/3 208/3/3
f 215/3/3 211/3/3 210/3/3
f 216/3/3 211/3/3 215/3/3
f 217/3/3 213/3/3 212/3/3
f 218/3/3 213/3/3 217/3/3
f 223/5/3 220/5/3 219/5/3
f 223/4/3 219/4/3 218/4/3
f 224/5/3 220/5/3 223/5/3
f 225/1/3 222/1/3 221/1/3
f 226/1/3 222/1/3 225/1/3
f 227/4/3 215/4/3 214/4/3
f 228/4/3 215/4/3 227/4/3
f 229/4/3 217/4/3 216/4/3
f 230/4/3 217/4/3 229/4/3
f 231/4/3 223/4/3 218/4/3
f 232/4/3 223/4/3 231/4/3
f 233/3/3 229/3/3 228/3/3
f 234/3/3 229/3/3 233/3/3
f 235/3/3 231/3/3 230/3/3
f 236/3/3 231/3/3 235/3/3
f 239/4/3 238/4/3 237/4/3
f 240/4/3 238/4/3 239/4/3
f 247/4/3 242/4/3 241/4/3
f 248/4/3 242/4/3 247/4/3
f 249/4/3 244/4/3 243/4/3
f 250/4/3 244/4/3 249/4/3
f 251/4/3 246/4/3 245/4/3
f 252/4/3 246/4/3 251/4/3
f 253/3/3 248/3/3 247/3/3
f 254/3/3 248/3/3 253/3/3
f 255/3/3 250/3/3 249/3/3
f 256/3/3 250/3/3 255/3/3
f 257/3/3 252/3/3 251/3/3
f 258/3/3 252/3/3 257/3/3
f 261/3/3 260/3/3 259/3/3
f 262/3/3 260/3/3 261/3/3
f 263/3/3 260/3/3 262/3/3
f 264/3/3 260/3/3 263/3/3
f 265/3/3 263/3/3 262/3/3
f 266/3/3 263/3/3 265/3/3
f 269/4/3 268/4/3 267/4/3
f 270/4/3 268/4/3 269/4/3
f 273/4/3 272/4/3 271/4/3
f 274/4/3 272/4/3 273/4/3
f 283/3/3 276/3/3 275/3/3
f 284/3/3 276/3/3 283/3/3
f 285/2/3 278/2/3 277/2/3
f 286/2/3 278/2/3 285/2/3
f 287/2/3 280/2/3 279/2/3
f 288/2/3 280/2/3 287/2/3
f 289/2/3 282/2/3 281/2/3
f 290/2/3 282/2/3 289/2/3
f 291/3/3 286/3/3 285/3/3
f 292/3/3 286/3/3 291/3/3
f 293/3/3 288/3/3 287/3/3
f 294/3/3 288/3/3 293/3/3
f 295/3/3 290/3/3 289/3/3
f 296/3/3 290/3/3 295/3/3
f 303/2/3 298/2/3 297/2/3
f 304/2/3 298/2/3 303/2/3
f 305/4/3 300/4/3 299/4/3
f 306/4/3 300/4/3 305/4/3
f 307/2/3 302/2/3 301/2/3
f 308/2/3 302/2/3 307/2/3
f 309/3/3 304/3/3 303/3/3
f 310/3/3 304/3/3 309/3/3
f 311/3/3 306/3/3 305/3/3
f 312/3/3 306/3/3 311/3/3
f 313/3/3 308/3/3 307/3/3
f 314/3/3 308/3/3 313/3/3
f 315/5/4 316/5/4 318/5/4
f 316/1/4 317/1/4 319/1/4
f 318/5/4 316/5/4 319/5/4
f 319/1/4 317/1/4 320/1/4
f 321/2/4 322/2/4 327/2/4
f 327/2/4 322/2/4 328/2/4
f 323/4/4 324/4/4 329/4/4
f 329/4/4 324/4/4 330/4/4
f 325/2/4 326/2/4 331/2/4
f 331/2/4 326/2/4 332/2/4
f 327/3/4 328/3/4 333/3/4
f 333/3/4 328/3/4 334/3/4
f 329/3/4 330/3/4 335/3/4
f 335/3/4 330/3/4 336/3/4
f 331/3/4 332/3/4 337/3/4
f 337/3/4 332/3/4 338/3/4
f 339/3/4 340/3/4 347/3/4
f 347/3/4 340/3/4 348/3/4
f 341/2/4 342/2/4 349/2/4
f 349/2/4 342/2/4 350/2/4
f 343/2/4 344/2/4 351/2/4
f 351/2/4 344/2/4 352/2/4
f 345/2/4 346/2/4 353/2/4
f 353/2/4 346/2/4 354/2/4
f 349/3/4 350/3/4 355/3/4
f 355/3/4 350/3/4 356/3/4
f 351/3/4 352/3/4 357/3/4
f 357/3/4 352/3/4 358/3/4
f 353/3/4 354/3/4 359/3/4
f 359/3/4 354/3/4 360/3/4
f 361/3/4 362/3/4 363/3/4
f 363/3/4 362/3/4 364/3/4
f 364/3/4 362/3/4 365/3/4
f 365/3/4 362/3/4 366/3/4
f 364/3/4 365/3/4 367/3/4
f 367/3/4 365/3/4 368/3/4
f 369/4/4 370/4/4 371/4/4
f 371/4/4 370/4/4 372/4/4
f 373/4/4 374/4/4 375/4/4
f 375/4/4 374/4/4 376/4/4
f 377/4/4 378/4/4 379/4/4
f 379/4/4 378/4/4 380/4/4
f 381/4/4 382/4/4 387/4/4
f 387/4/4 382/4/4 388/4/4
f 383/4/4 384/4/4 389/4/4
f 389/4/4 384/4/4 390/4/4
f 385/4/4 386/4/4 391/4/4
f 391/4/4 386/4/4 392/4/4
f 387/3/4 388/3/4 393/3/4
f 393/3/4 388/3/4 394/3/4
f 389/3/4 390/3/4 395/3/4
f 395/3/4 390/3/4 396/3/4
f 391/3/4 392/3/4 397/3/4
f 397/3/4 392/3/4 398/3/4
f 399/3/4 400/3/4 404/3/4
f 404/3/4 400/3/4 405/3/4
f 401/3/4 402/3/4 406/3/4
f 406/3/4 402/3/4 407/3/4
f 403/4/4 404/4/4 409/4/4
f 409/4/4 404/4/4 410/4/4
f 405/4/4 406/4/4 411/4/4
f 411/4/4 406/4/4 412/4/4
f 407/4/4 408/4/4 413/4/4
f 413/4/4 408/4/4 414/4/4
f 410/3/4 411/3/4 415/3/4
f 415/3/4 411/3/4 416/3/4
f 412/3/4 413/3/4 417/3/4
f 417/3/4 413/3/4 418/3/4
f 419/3/4 420/3/4 423/3/4
f 423/3/4 420/3/4 424/3/4
f 421/3/4 422/3/4 425/3/4
f 425/3/4 422/3/4 426/3/4
f 429/4/5 428/4/5 427/4/5
f 432/4/5 429/4/5 427/4/5
f 432/4/5 430/4/5 429/4/5
f 433/3/5 431/3/5 430/3/5
f 433/4/5 430/4/5 432/4/5
f 434/3/5 431/3/5 433/3/5
f 435/4/5 432/4/5 427/4/5
f 436/4/5 432/4/5 435/4/5
f 440/3/5 438/3/5 437/3/5
f 441/3/5 438/3/5 440/3/5
f 443/3/5 442/3/5 441/3/5
f 444/3/5 442/3/5 443/3/5
f 445/3/5 442/3/5 444/3/5
f 447/3/5 440/3/5 439/3/5
f 448/3/5 447/3/5 446/3/5
f 449/3/5 440/3/5 447/3/5
f 449/3/5 447/3/5 448/3/5
f 453/3/5 440/3/5 449/3/5
f 454/3/5 440/3/5 453/3/5
f 455/3/5 452/3/5 451/3/5
f 455/3/5 451/3/5 450/3/5
f 456/3/5 452/3/5 455/3/5
f 457/3/5 455/3/5 454/3/5
f 458/3/5 455/3/5 457/3/5
f 462/2/5 460/2/5 459/2/5
f 463/3/5 461/3/5 460/3/5
f 463/2/5 460/2/5 462/2/5
f 464/3/5 461/3/5 463/3/5
f 468/2/5 466/2/5 465/2/5
f 469/3/5 467/3/5 466/3/5
f 469/2/5 466/2/5 468/2/5
f 470/3/5 467/3/5 469/3/5
f 474/2/5 472/2/5 471/2/5
f 475/3/5 473/3/5 472/3/5
f 475/2/5 472/2/5 474/2/5
f 476/3/5 473/3/5 475/3/5
f 480/2/5 478/2/5 477/2/5
f 481/3/5 479/3/5 478/3/5
f 481/2/5 478/2/5 480/2/5
f 482/3/5 479/3/5 481/3/5
f 486/3/5 484/3/5 483/3/5
f 487/3/5 484/3/5 486/3/5
f 489/3/5 488/3/5 487/3/5
f 490/3/5 488/3/5 489/3/5
f 491/3/5 488/3/5 490/3/5
f 492/3/5 486/3/5 485/3/5
f 493/3/5 486/3/5 492/3/5
f 499/3/5 495/3/5 494/3/5
f 500/3/5 495/3/5 499/3/5
f 501/3/5 498/3/5 497/3/5
f 501/3/5 497/3/5 496/3/5
f 502/3/5 498/3/5 501/3/5
f 503/3/5 501/3/5 500/3/5
f 504/3/5 501/3/5 503/3/5
f 508/4/5 506/4/5 505/4/5
f 509/3/5 507/3/5 506/3/5
f 509/4/5 506/4/5 508/4/5
f 510/3/5 507/3/5 509/3/5
f 514/4/5 512/4/5 511/4/5
f 515/3/5 513/3/5 512/3/5
f 515/4/5 512/4/5 514/4/5
f 516/3/5 513/3/5 515/3/5
f 519/5/5 518/5/5 517/5/5
f 520/5/5 518/5/5 519/5/5
f 521/4/6 522/4/6 524/4/6
f 522/3/6 523/3/6 525/3/6
f 524/4/6 522/4/6 525/4/6
f 525/3/6 523/3/6 526/3/6
f 527/4/6 528/4/6 530/4/6
f 528/3/6 529/3/6 531/3/6
f 530/4/6 528/4/6 531/4/6
f 531/3/6 529/3/6 532/3/6
f 533/3/6 534/3/6 536/3/6
f 536/3/6 534/3/6 537/3/6
f 537/3/6 538/3/6 539/3/6
f 539/3/6 538/3/6 540/3/6
f 540/3/6 538/3/6 541/3/6
f 535/3/6 536/3/6 542/3/6
f 542/3/6 536/3/6 543/3/6
f 544/3/6 545/3/6 549/3/6
f 549/3/6 545/3/6 550/3/6
f 547/3/6 548/3/6 551/3/6
f 546/3/6 547/3/6 551/3/6
f 551/3/6 548/3/6 552/3/6
f 550/3/6 551/3/6 553/3/6
f 553/3/6 551/3/6 554/3/6
f 555/2/6 556/2/6 558/2/6
f 556/3/6 557/3/6 559/3/6
f 558/2/6 556/2/6 559/2/6
f 559/3/6 557/3/6 560/3/6
f 561/2/6 562/2/6 564/2/6
f 562/3/6 563/3/6 565/3/6
f 564/2/6 562/2/6 565/2/6
f 565/3/6 563/3/6 566/3/6
f 567/2/6 568/2/6 570/2/6
f 568/3/6 569/3/6 571/3/6
f 570/2/6 568/2/6 571/2/6
f 571/3/6 569/3/6 572/3/6
f 573/2/6 574/2/6 576/2/6
f 574/3/6 575/3/6 577/3/6
f 576/2/6 574/2/6 577/2/6
f 577/3/6 575/3/6 578/3/6
f 579/3/6 580/3/6 582/3/6
f 582/3/6 580/3/6 583/3/6
f 583/3/6 584/3/6 585/3/6
f 585/3/6 584/3/6 586/3/6
f 586/3/6 584/3/6 587/3/6
f 581/3/6 582/3/6 589/3/6
f 589/3/6 582/3/6 590/3/6
f 588/3/6 589/3/6 590/3/6
f 588/3/6 590/3/6 591/3/6
f 588/3/6 591/3/6 592/3/6
f 592/3/6 591/3/6 593/3/6
f 593/3/6 591/3/6 597/3/6
f 597/3/6 591/3/6 598/3/6
f 595/3/6 596/3/6 599/3/6
f 594/3/6 595/3/6 599/3/6
f 599/3/6 596/3/6 600/3/6
f 598/3/6 599/3/6 601/3/6
f 601/3/6 599/3/6 602/3/6
f 603/4/6 604/4/6 606/4/6
f 606/4/6 604/4/6 607/4/6
f 607/4/6 604/4/6 608/4/6
f 608/4/6 604/4/6 609/4/6
f 605/4/6 606/4/6 612/4/6
f 606/4/6 607/4/6 612/4/6
f 612/4/6 607/4/6 613/4/6
f 609/4/6 610/4/6 614/4/6
f 608/4/6 609/4/6 614/4/6
f 614/4/6 610/4/6 615/4/6
f 615/4/6 610/4/6 616/4/6
f 610/3/6 611/3/6 617/3/6
f 616/4/6 610/4/6 617/4/6
f 616/3/6 617/3/6 618/3/6
f 617/3/6 611/3/6 619/3/6
f 618/3/6 617/3/6 619/3/6
f 618/4/6 619/4/6 623/4/6
f 620/4/6 621/4/6 624/4/6
f 622/4/6 623/4/6 625/4/6
f 625/4/6 623/4/6 626/4/6
f 619/3/6 611/3/6 627/3/6
f 626/4/6 623/4/6 627/4/6
f 623/4/6 619/4/6 627/4/6
f 627/3/6 611/3/6 628/3/6
f 620/4/6 624/4/6 629/4/6
f 625/4/6 626/4/6 629/4/6
f 624/4/6 625/4/6 629/4/6
f 629/4/6 626/4/6 630/4/6
f 631/4/6 632/4/6 634/4/6
f 634/4/6 632/4/6 635/4/6
f 633/4/6 634/4/6 637/4/6
f 635/4/6 636/4/6 637/4/6
f 634/4/6 635/4/6 637/4/6
f 637/4/6 636/4/6 638/4/6
f 639/4/6 640/4/6 641/4/6
f 641/4/6 640/4/6 642/4/6
f 642/4/6 640/4/6 643/4/6
f 643/4/6 640/4/6 644/4/6
f 642/4/6 643/4/6 645/4/6
f 645/4/6 643/4/6 646/4/6
f 647/3/6 648/3/6 649/3/6
f 649/3/6 648/3/6 650/3/6
f 651/5/6 652/5/6 653/5/6
f 653/5/6 652/5/6 654/5/6
f 655/1/6 656/1/6 657/1/6
f 657/1/6 656/1/6 658/1/6
