# MagicaVoxel @ Ephtracy

# group
o 

# material
mtllib bullet_player.mtl
usemtl palette

# normals
vn -1 0 0
vn 1 0 0
vn 0 0 1
vn 0 0 -1
vn 0 -1 0
vn 0 1 0

# texcoords
vt 0.611328 0.5
vt 0.880859 0.5
vt 0.962891 0.5

# verts
v 3.2 3.8 -1.6
v 3.2 3.8 -1.7
v 3.2 3.8 -1.8
v 3.2 3.8 -1.9
v 3.2 3.9 -1.6
v 3.2 3.9 -1.7
v 3.2 3.9 -1.8
v 3.2 3.9 -1.9
v 3.3 3.8 -1.7
v 3.3 3.8 -1.8
v 3.3 3.9 -1.7
v 3.3 3.9 -1.8
v 3.5 3.7 -1.7
v 3.5 3.7 -1.8
v 3.5 3.8 -1.6
v 3.5 3.8 -1.7
v 3.5 3.8 -1.8
v 3.5 3.8 -1.9
v 3.5 3.9 -1.6
v 3.5 3.9 -1.7
v 3.5 3.9 -1.8
v 3.5 3.9 -1.9
v 3.5 4 -1.7
v 3.5 4 -1.8
v 3.4 3.8 -1.6
v 3.4 3.8 -1.7
v 3.4 3.8 -1.8
v 3.4 3.8 -1.9
v 3.4 3.9 -1.6
v 3.4 3.9 -1.7
v 3.4 3.9 -1.8
v 3.4 3.9 -1.9
v 3.8 3.7 -1.7
v 3.8 3.7 -1.8
v 3.8 3.8 -1.6
v 3.8 3.8 -1.7
v 3.8 3.8 -1.8
v 3.8 3.8 -1.9
v 3.8 3.9 -1.6
v 3.8 3.9 -1.7
v 3.8 3.9 -1.8
v 3.8 3.9 -1.9
v 3.8 4 -1.7
v 3.8 4 -1.8
v 3.9 3.8 -1.7
v 3.9 3.8 -1.8
v 3.9 3.9 -1.7
v 3.9 3.9 -1.8
v 3.2 3.8 -1.6
v 3.2 3.9 -1.6
v 3.3 3.8 -1.6
v 3.3 3.9 -1.6
v 3.4 3.8 -1.6
v 3.4 3.9 -1.6
v 3.5 3.8 -1.6
v 3.5 3.9 -1.6
v 3.8 3.8 -1.6
v 3.8 3.9 -1.6
v 3.4 3.8 -1.7
v 3.4 3.9 -1.7
v 3.5 3.7 -1.7
v 3.5 3.8 -1.7
v 3.5 3.9 -1.7
v 3.5 4 -1.7
v 3.8 3.7 -1.7
v 3.8 3.8 -1.7
v 3.8 3.9 -1.7
v 3.8 4 -1.7
v 3.9 3.8 -1.7
v 3.9 3.9 -1.7
v 3.2 3.8 -1.8
v 3.2 3.9 -1.8
v 3.3 3.8 -1.8
v 3.3 3.9 -1.8
v 3.2 3.8 -1.7
v 3.2 3.9 -1.7
v 3.3 3.8 -1.7
v 3.3 3.9 -1.7
v 3.4 3.8 -1.8
v 3.4 3.9 -1.8
v 3.5 3.7 -1.8
v 3.5 3.8 -1.8
v 3.5 3.9 -1.8
v 3.5 4 -1.8
v 3.8 3.7 -1.8
v 3.8 3.8 -1.8
v 3.8 3.9 -1.8
v 3.8 4 -1.8
v 3.9 3.8 -1.8
v 3.9 3.9 -1.8
v 3.2 3.8 -1.9
v 3.2 3.9 -1.9
v 3.3 3.8 -1.9
v 3.3 3.9 -1.9
v 3.4 3.8 -1.9
v 3.4 3.9 -1.9
v 3.5 3.8 -1.9
v 3.5 3.9 -1.9
v 3.8 3.8 -1.9
v 3.8 3.9 -1.9
v 3.5 3.7 -1.7
v 3.8 3.7 -1.7
v 3.5 3.7 -1.8
v 3.8 3.7 -1.8
v 3.2 3.8 -1.6
v 3.3 3.8 -1.6
v 3.4 3.8 -1.6
v 3.5 3.8 -1.6
v 3.8 3.8 -1.6
v 3.2 3.8 -1.7
v 3.3 3.8 -1.7
v 3.4 3.8 -1.7
v 3.5 3.8 -1.7
v 3.8 3.8 -1.7
v 3.9 3.8 -1.7
v 3.2 3.8 -1.8
v 3.3 3.8 -1.8
v 3.4 3.8 -1.8
v 3.5 3.8 -1.8
v 3.8 3.8 -1.8
v 3.9 3.8 -1.8
v 3.2 3.8 -1.9
v 3.3 3.8 -1.9
v 3.4 3.8 -1.9
v 3.5 3.8 -1.9
v 3.8 3.8 -1.9
v 3.2 3.9 -1.6
v 3.3 3.9 -1.6
v 3.4 3.9 -1.6
v 3.5 3.9 -1.6
v 3.8 3.9 -1.6
v 3.2 3.9 -1.7
v 3.3 3.9 -1.7
v 3.4 3.9 -1.7
v 3.5 3.9 -1.7
v 3.8 3.9 -1.7
v 3.9 3.9 -1.7
v 3.2 3.9 -1.8
v 3.3 3.9 -1.8
v 3.4 3.9 -1.8
v 3.5 3.9 -1.8
v 3.8 3.9 -1.8
v 3.9 3.9 -1.8
v 3.2 3.9 -1.9
v 3.3 3.9 -1.9
v 3.4 3.9 -1.9
v 3.5 3.9 -1.9
v 3.8 3.9 -1.9
v 3.5 4 -1.7
v 3.8 4 -1.7
v 3.5 4 -1.8
v 3.8 4 -1.8

# faces
f 5/1/1 2/1/1 1/1/1
f 6/1/1 2/1/1 5/1/1
f 7/1/1 4/1/1 3/1/1
f 8/1/1 4/1/1 7/1/1
f 11/3/1 10/3/1 9/3/1
f 12/3/1 10/3/1 11/3/1
f 16/1/1 14/1/1 13/1/1
f 17/1/1 14/1/1 16/1/1
f 19/1/1 16/1/1 15/1/1
f 20/1/1 16/1/1 19/1/1
f 21/1/1 18/1/1 17/1/1
f 22/1/1 18/1/1 21/1/1
f 23/1/1 21/1/1 20/1/1
f 24/1/1 21/1/1 23/1/1
f 25/3/2 26/3/2 29/3/2
f 29/3/2 26/3/2 30/3/2
f 27/3/2 28/3/2 31/3/2
f 31/3/2 28/3/2 32/3/2
f 33/1/2 34/1/2 36/1/2
f 36/1/2 34/1/2 37/1/2
f 35/1/2 36/1/2 39/1/2
f 39/1/2 36/1/2 40/1/2
f 37/1/2 38/1/2 41/1/2
f 41/1/2 38/1/2 42/1/2
f 40/1/2 41/1/2 43/1/2
f 43/1/2 41/1/2 44/1/2
f 45/3/2 46/3/2 47/3/2
f 47/3/2 46/3/2 48/3/2
f 51/1/3 50/1/3 49/1/3
f 52/1/3 50/1/3 51/1/3
f 53/3/3 52/3/3 51/3/3
f 54/3/3 52/3/3 53/3/3
f 57/1/3 56/1/3 55/1/3
f 58/1/3 56/1/3 57/1/3
f 62/3/3 60/3/3 59/3/3
f 63/3/3 60/3/3 62/3/3
f 65/1/3 62/1/3 61/1/3
f 66/1/3 62/1/3 65/1/3
f 67/1/3 64/1/3 63/1/3
f 68/1/3 64/1/3 67/1/3
f 69/3/3 67/3/3 66/3/3
f 70/3/3 67/3/3 69/3/3
f 73/1/3 72/1/3 71/1/3
f 74/1/3 72/1/3 73/1/3
f 75/1/4 76/1/4 77/1/4
f 77/1/4 76/1/4 78/1/4
f 79/3/4 80/3/4 82/3/4
f 82/3/4 80/3/4 83/3/4
f 81/1/4 82/1/4 85/1/4
f 85/1/4 82/1/4 86/1/4
f 83/1/4 84/1/4 87/1/4
f 87/1/4 84/1/4 88/1/4
f 86/3/4 87/3/4 89/3/4
f 89/3/4 87/3/4 90/3/4
f 91/1/4 92/1/4 93/1/4
f 93/1/4 92/1/4 94/1/4
f 93/3/4 94/3/4 95/3/4
f 95/3/4 94/3/4 96/3/4
f 97/1/4 98/1/4 99/1/4
f 99/1/4 98/1/4 100/1/4
f 103/1/5 102/1/5 101/1/5
f 104/1/5 102/1/5 103/1/5
f 110/1/5 106/1/5 105/1/5
f 111/3/5 107/3/5 106/3/5
f 111/1/5 106/1/5 110/1/5
f 112/3/5 107/3/5 111/3/5
f 113/1/5 109/1/5 108/1/5
f 114/1/5 109/1/5 113/1/5
f 117/3/5 112/3/5 111/3/5
f 117/3/5 113/3/5 112/3/5
f 118/3/5 113/3/5 117/3/5
f 119/3/5 113/3/5 118/3/5
f 120/3/5 115/3/5 114/3/5
f 121/3/5 115/3/5 120/3/5
f 122/1/5 117/1/5 116/1/5
f 123/3/5 118/3/5 117/3/5
f 123/1/5 117/1/5 122/1/5
f 124/3/5 118/3/5 123/3/5
f 125/1/5 120/1/5 119/1/5
f 126/1/5 120/1/5 125/1/5
f 127/1/6 128/1/6 132/1/6
f 128/3/6 129/3/6 133/3/6
f 132/1/6 128/1/6 133/1/6
f 133/3/6 129/3/6 134/3/6
f 130/1/6 131/1/6 135/1/6
f 135/1/6 131/1/6 136/1/6
f 133/3/6 134/3/6 139/3/6
f 134/3/6 135/3/6 139/3/6
f 139/3/6 135/3/6 140/3/6
f 140/3/6 135/3/6 141/3/6
f 136/3/6 137/3/6 142/3/6
f 142/3/6 137/3/6 143/3/6
f 138/1/6 139/1/6 144/1/6
f 139/3/6 140/3/6 145/3/6
f 144/1/6 139/1/6 145/1/6
f 145/3/6 140/3/6 146/3/6
f 141/1/6 142/1/6 147/1/6
f 147/1/6 142/1/6 148/1/6
f 149/1/6 150/1/6 151/1/6
f 151/1/6 150/1/6 152/1/6
